# xmcd
#
# Track frame offsets:
# 150
# 6203
# 29737
# 42189
# 58986
# 76320
# 88417
# 106909
# 121833
# 148050
# 165273
# 181437
#
# Disc length: 2512 seconds
#
#
# Revision: 0
# Processed by: cddbd v1.5.2PL0 Copyright (c) Steve Scherf et al.
# Submitted via: Nero 7, 0, 8, 2 muy weno
#
DISCID=9f09ce0c
DTITLE=bossa nova - rock latino
DYEAR=2009
DGENRE=Blues
TTITLE0=rock latino
TTITLE1=rock latino
TTITLE2=rock latino
TTITLE3=rock latino
TTITLE4=rock latino
TTITLE5=rock latino
TTITLE6=rock latino
TTITLE7=rock latino
TTITLE8=rock latino
TTITLE9=rock latino
TTITLE10=rock latino
TTITLE11=rock latino
EXTD=
EXTT0=
EXTT1=
EXTT2=
EXTT3=
EXTT4=
EXTT5=
EXTT6=
EXTT7=
EXTT8=
EXTT9=
EXTT10=
EXTT11=
PLAYORDER=
